<?xml version="1.0" encoding="UTF-8"?>
<svg xmlns="http://www.w3.org/2000/svg" style="stroke-dasharray:none; shape-rendering:auto; font-family:'Arial'; text-rendering:auto; fill-opacity:1; color-interpolation:auto; color-rendering:auto; font-size:12; fill:black; stroke:black; image-rendering:auto; stroke-miterlimit:10; stroke-linecap:square; stroke-linejoin:miter; font-style:normal; stroke-width:1; stroke-dashoffset:0; font-weight:normal; stroke-opacity:1;" contentScriptType="text/ecmascript" preserveAspectRatio="xMidYMid meet" zoomAndPan="magnify" version="1.0" contentStyleType="text/css" xml:xlink="http://www.w3.org/1999/xlink" width="1012" height="491"><rect x="115" y="327" width="897" height="164" ry="0" rx="0" style="stroke:#000000; fill:#8080C0" /><g componentSequence="3"><text x="-409" y="123" transform="rotate(270)" text-anchor="middle" style="font-weight:bold;font-size:10px;stroke:none; fill:#434343"><tspan dy="14" x="-409">RH</tspan></text></g><rect x="115" y="30" width="897" height="143" ry="0" rx="0" style="stroke:#000000; fill:#8080C0" /><g componentSequence="2"><text x="-101" y="123" transform="rotate(270)" text-anchor="middle" style="font-weight:bold;font-size:10px;stroke:none; fill:#434343"><tspan dy="14" x="-101">COLABORADORES</tspan></text></g><rect x="115" y="172" width="897" height="155" ry="0" rx="0" style="stroke:#000000; fill:#8080FF" /><g componentSequence="1"><text x="-249" y="123" transform="rotate(270)" text-anchor="middle" style="font-weight:bold;font-size:10px;stroke:none; fill:#434343"><tspan dy="14" x="-249">GESTORES</tspan></text></g><g sequence="4"><ellipse cx="217" cy="120" rx="17" ry="17" stroke-width="1" style="fill:url(#linearGradient66FF6696FF96B6FFB6_192097645);" stroke="336633" /></g><g sequence="5"><rect x="280" y="75" width="106" height="92" ry="5" rx="5" style="fill:url(#linearGradientF8FBFEEDF5FCDEEDFAD4E7F8E2E5E9_95736435);" stroke="191970" /></g><g componentSequence="5"><text x="333" y="90" text-anchor="middle" style="font-weight:bold;font-size:10px;stroke:none; fill:#333399"><tspan dy="14" x="333">Envio de itens</tspan><tspan dy="14" x="333">a ser</tspan><tspan dy="14" x="333">comprados</tspan></text></g><g sequence="7"><polygon points=" 300 240 330 210 360 240 330 270 300 240" style="fill:url(#linearGradientFAFBFCFFFFCC_25904669);" stroke="000000" /></g><g componentSequence="7"><text x="330" y="280" text-anchor="middle" style="font-weight:bold;font-size:10px;stroke:none; fill:#333399"><tspan dy="14" x="330">análise</tspan><tspan dy="14" x="330">gestor</tspan></text></g><g sequence="11"><ellipse cx="917" cy="251" rx="17" ry="17" stroke-width="3" style="fill:url(#linearGradientFF6666FF9696FFB6B6_1149884488);" stroke="993333" /></g><g sequence="13"><rect x="280" y="380" width="106" height="76" ry="5" rx="5" style="fill:url(#linearGradientF8FBFEEDF5FCDEEDFAD4E7F8E2E5E9_1443077617);" stroke="191970" /></g><g componentSequence="13"><text x="333" y="395" text-anchor="middle" style="font-weight:bold;font-size:10px;stroke:none; fill:#333399"><tspan dy="14" x="333">Analise de</tspan><tspan dy="14" x="333">viabilidade</tspan></text></g><g sequence="15"><polygon points=" 490 390 520 360 550 390 520 420 490 390" style="fill:url(#linearGradientFAFBFCFFFFCC_1963457032);" stroke="000000" /></g><g componentSequence="15"><text x="520" y="430" text-anchor="middle" style="font-weight:bold;font-size:10px;stroke:none; fill:#333399"><tspan dy="14" x="520">análise</tspan><tspan dy="14" x="520">RH</tspan></text></g><g sequence="22"><rect x="740" y="409" width="106" height="76" ry="5" rx="5" style="fill:url(#linearGradientF8FBFEEDF5FCDEEDFAD4E7F8E2E5E9_778559771);" stroke="191970" /></g><g componentSequence="22"><text x="793" y="436" text-anchor="middle" style="font-weight:bold;font-size:10px;stroke:none; fill:#333399"><tspan dy="14" x="793">Comprar Itens</tspan></text></g><g sequence="24"><rect x="740" y="329" width="106" height="76" ry="5" rx="5" style="fill:url(#linearGradientF8FBFEEDF5FCDEEDFAD4E7F8E2E5E9_614868743);" stroke="191970" /></g><g componentSequence="24"><text x="793" y="344" text-anchor="middle" style="font-weight:bold;font-size:10px;stroke:none; fill:#333399"><tspan dy="14" x="793">Notifica</tspan><tspan dy="14" x="793">Colaborador</tspan></text></g><g sequence="26"><rect x="470" y="220" width="106" height="76" ry="5" rx="5" style="fill:url(#linearGradientF8FBFEEDF5FCDEEDFAD4E7F8E2E5E9_1845549687);" stroke="191970" /></g><g componentSequence="26"><text x="523" y="235" text-anchor="middle" style="font-weight:bold;font-size:10px;stroke:none; fill:#333399"><tspan dy="14" x="523">Notificar</tspan><tspan dy="14" x="523">Colaborador</tspan></text></g><g sequence="30"><polygon points=" 910 390 940 360 970 390 940 420 910 390" style="fill:url(#linearGradientFAFBFCFFFFCC_614316549);" stroke="000000" /></g><path style="fill:none; stroke-width:6; stroke:#000000;" d="M930.0 390.0 L950.0 390.0" /><path style="fill:none; stroke-width:6; stroke:#000000;" d="M940.0 380.0 L940.0 400.0" /><g componentSequence="30"><text x="940" y="425" text-anchor="middle" style="font-weight:bold;font-size:10px;stroke:none; fill:#333399"><tspan dy="14" x="940">Join</tspan></text></g><g sequence="40"><polygon points=" 610 400 640 370 670 400 640 430 610 400" style="fill:url(#linearGradientFAFBFCFFFFCC_895740084);" stroke="000000" /></g><path style="fill:none; stroke-width:6; stroke:#000000;" d="M630.0 400.0 L650.0 400.0" /><path style="fill:none; stroke-width:6; stroke:#000000;" d="M640.0 390.0 L640.0 410.0" /><g componentSequence="40"><text x="640" y="440" text-anchor="middle" style="font-weight:bold;font-size:10px;stroke:none; fill:#333399"><tspan dy="14" x="640">Paralel</tspan><tspan dy="14" x="640">o</tspan></text></g><g componentSequence="6"><text x="267" y="120" style="font-size:10px;font-weight:none;stroke:none; fill:#333399" text-anchor="left" /></g><g componentSequence="14"><text x="342" y="349" style="font-size:10px;font-weight:none;stroke:none; fill:#333399" text-anchor="left" /></g><g componentSequence="16"><text x="448" y="416" style="font-size:10px;font-weight:none;stroke:none; fill:#333399" text-anchor="left" /></g><g componentSequence="27"><text x="425" y="261" style="font-size:10px;font-weight:none;stroke:none; fill:#333399" text-anchor="left" /></g><g componentSequence="28"><text x="532" y="328" style="font-size:10px;font-weight:none;stroke:none; fill:#333399" text-anchor="left" /></g><g componentSequence="29"><text x="748" y="254" style="font-size:10px;font-weight:none;stroke:none; fill:#333399" text-anchor="left" /></g><g componentSequence="31"><text x="888" y="423" style="font-size:10px;font-weight:none;stroke:none; fill:#333399" text-anchor="left" /></g><g componentSequence="32"><text x="888" y="390" style="font-size:10px;font-weight:none;stroke:none; fill:#333399" text-anchor="left" /></g><g componentSequence="33"><text x="949" y="303" style="font-size:10px;font-weight:none;stroke:none; fill:#333399" text-anchor="left" /></g><g componentSequence="39"><text x="342" y="188" style="font-size:10px;font-weight:none;stroke:none; fill:#333399" text-anchor="left" /></g><g componentSequence="41"><text x="590" y="419" style="font-size:10px;font-weight:none;stroke:none; fill:#333399" text-anchor="left" /></g><g componentSequence="42"><text x="715" y="399" style="font-size:10px;font-weight:none;stroke:none; fill:#333399" text-anchor="left" /></g><g componentSequence="43"><text x="715" y="433" style="font-size:10px;font-weight:none;stroke:none; fill:#333399" text-anchor="left" /></g><path style="fill:none; stroke:#000000;stroke-width:1" d="M234.0 120.0 L279.0 120.0" /><polygon style="fill:#000000; stroke:#000000;" points=" 269 115 279 120 269 125 271 120" /><path style="fill:none; stroke:#000000;stroke-width:1" d="M332.0 167.0 L331.0 209.0" /><polygon style="fill:#000000; stroke:#000000;" points=" 336 199 331 209 326 199 331 201" /><path style="fill:none; stroke:#000000;stroke-width:1" d="M331.0 318.0 L332.0 379.0" /><polygon style="fill:#000000; stroke:#000000;" points=" 337 369 332 379 327 369 332 371" /><path style="fill:none; stroke:#000000;stroke-width:1" d="M360.0 263.0 L469.0 259.0" /><polygon style="fill:#000000; stroke:#000000;" points=" 459 254 469 259 459 264 461 259" /><path style="fill:none; stroke:#000000;stroke-width:1" d="M576.0 257.0 L900.0 251.0" /><polygon style="fill:#000000; stroke:#000000;" points=" 890 246 900 251 890 256 892 251" /><path style="fill:none; stroke:#000000;stroke-width:1" d="M939.0 359.0 L939.0 251.0 L935.0 251.0" /><polygon style="fill:#000000; stroke:#000000;" points=" 945 256 935 251 945 246 943 251" /><path style="fill:none; stroke:#000000;stroke-width:1" d="M386.0 417.0 L489.0 414.0" /><polygon style="fill:#000000; stroke:#000000;" points=" 479 409 489 414 479 419 481 414" /><path style="fill:none; stroke:#000000;stroke-width:1" d="M521.0 359.0 L522.0 296.0" /><polygon style="fill:#000000; stroke:#000000;" points=" 517 306 522 296 527 306 522 304" /><path style="fill:none; stroke:#000000;stroke-width:1" d="M550.0 416.0 L609.0 421.0" /><polygon style="fill:#000000; stroke:#000000;" points=" 599 415 609 421 599 425 601 420" /><path style="fill:none; stroke:#000000;stroke-width:1" d="M846.0 432.0 L909.0 414.0" /><polygon style="fill:#000000; stroke:#000000;" points=" 898 412 909 414 901 422 901 416" /><path style="fill:none; stroke:#000000;stroke-width:1" d="M670.0 428.0 L739.0 439.0" /><polygon style="fill:#000000; stroke:#000000;" points=" 730 432 739 439 728 442 731 438" /><path style="fill:none; stroke:#000000;stroke-width:1" d="M846.0 381.0 L909.0 397.0" /><polygon style="fill:#000000; stroke:#000000;" points=" 901 390 909 397 898 399 901 395" /><path style="fill:none; stroke:#000000;stroke-width:1" d="M670.0 412.0 L739.0 387.0" /><polygon style="fill:#000000; stroke:#000000;" points=" 728 386 739 387 731 395 731 390" /><defs><linearGradient xmlns:xlink="http://www.w3.org/1999/xlink" xlink:href="#linearGradient66FF6696FF96B6FFB6" id="linearGradient66FF6696FF96B6FFB6_192097645" x1="0" y1="103.0" x2="0" y2="138.0" gradientUnits="userSpaceOnUse" xlink:type="simple" xlink:actuate="onLoad" xlink:show="other" /><linearGradient id="linearGradient66FF6696FF96B6FFB6"><stop style="stop-color:#66FF66;stop-opacity:1;" offset="0.0" id="stop66FF66" /><stop style="stop-color:#96FF96;stop-opacity:1;" offset="0.5" id="stop96FF96" /><stop style="stop-color:#B6FFB6;stop-opacity:1;" offset="1.0" id="stopB6FFB6" /></linearGradient><linearGradient xmlns:xlink="http://www.w3.org/1999/xlink" xlink:href="#linearGradientF8FBFEEDF5FCDEEDFAD4E7F8E2E5E9" id="linearGradientF8FBFEEDF5FCDEEDFAD4E7F8E2E5E9_95736435" x1="0" y1="75.0" x2="0" y2="181.0" gradientUnits="userSpaceOnUse" xlink:type="simple" xlink:actuate="onLoad" xlink:show="other" /><linearGradient id="linearGradientF8FBFEEDF5FCDEEDFAD4E7F8E2E5E9"><stop style="stop-color:#F8FBFE;stop-opacity:1;" offset="0.0" id="stopF8FBFE" /><stop style="stop-color:#EDF5FC;stop-opacity:1;" offset="0.25" id="stopEDF5FC" /><stop style="stop-color:#DEEDFA;stop-opacity:1;" offset="0.5" id="stopDEEDFA" /><stop style="stop-color:#D4E7F8;stop-opacity:1;" offset="0.75" id="stopD4E7F8" /><stop style="stop-color:#E2E5E9;stop-opacity:1;" offset="1.0" id="stopE2E5E9" /></linearGradient><linearGradient xmlns:xlink="http://www.w3.org/1999/xlink" xlink:href="#linearGradientFAFBFCFFFFCC" id="linearGradientFAFBFCFFFFCC_25904669" x1="0" y1="210.0" x2="0" y2="270.0" gradientUnits="userSpaceOnUse" xlink:type="simple" xlink:actuate="onLoad" xlink:show="other" /><linearGradient id="linearGradientFAFBFCFFFFCC"><stop style="stop-color:#FAFBFC;stop-opacity:1;" offset="0.0" id="stopFAFBFC" /><stop style="stop-color:#FFFFCC;stop-opacity:1;" offset="1.0" id="stopFFFFCC" /></linearGradient><linearGradient xmlns:xlink="http://www.w3.org/1999/xlink" xlink:href="#linearGradientFF6666FF9696FFB6B6" id="linearGradientFF6666FF9696FFB6B6_1149884488" x1="0" y1="234.0" x2="0" y2="269.0" gradientUnits="userSpaceOnUse" xlink:type="simple" xlink:actuate="onLoad" xlink:show="other" /><linearGradient id="linearGradientFF6666FF9696FFB6B6"><stop style="stop-color:#FF6666;stop-opacity:1;" offset="0.0" id="stopFF6666" /><stop style="stop-color:#FF9696;stop-opacity:1;" offset="0.5" id="stopFF9696" /><stop style="stop-color:#FFB6B6;stop-opacity:1;" offset="1.0" id="stopFFB6B6" /></linearGradient><linearGradient xmlns:xlink="http://www.w3.org/1999/xlink" xlink:href="#linearGradientF8FBFEEDF5FCDEEDFAD4E7F8E2E5E9" id="linearGradientF8FBFEEDF5FCDEEDFAD4E7F8E2E5E9_1443077617" x1="0" y1="380.0" x2="0" y2="486.0" gradientUnits="userSpaceOnUse" xlink:type="simple" xlink:actuate="onLoad" xlink:show="other" /><linearGradient xmlns:xlink="http://www.w3.org/1999/xlink" xlink:href="#linearGradientFAFBFCFFFFCC" id="linearGradientFAFBFCFFFFCC_1963457032" x1="0" y1="360.0" x2="0" y2="420.0" gradientUnits="userSpaceOnUse" xlink:type="simple" xlink:actuate="onLoad" xlink:show="other" /><linearGradient xmlns:xlink="http://www.w3.org/1999/xlink" xlink:href="#linearGradientF8FBFEEDF5FCDEEDFAD4E7F8E2E5E9" id="linearGradientF8FBFEEDF5FCDEEDFAD4E7F8E2E5E9_778559771" x1="0" y1="409.0" x2="0" y2="515.0" gradientUnits="userSpaceOnUse" xlink:type="simple" xlink:actuate="onLoad" xlink:show="other" /><linearGradient xmlns:xlink="http://www.w3.org/1999/xlink" xlink:href="#linearGradientF8FBFEEDF5FCDEEDFAD4E7F8E2E5E9" id="linearGradientF8FBFEEDF5FCDEEDFAD4E7F8E2E5E9_614868743" x1="0" y1="329.0" x2="0" y2="435.0" gradientUnits="userSpaceOnUse" xlink:type="simple" xlink:actuate="onLoad" xlink:show="other" /><linearGradient xmlns:xlink="http://www.w3.org/1999/xlink" xlink:href="#linearGradientF8FBFEEDF5FCDEEDFAD4E7F8E2E5E9" id="linearGradientF8FBFEEDF5FCDEEDFAD4E7F8E2E5E9_1845549687" x1="0" y1="220.0" x2="0" y2="326.0" gradientUnits="userSpaceOnUse" xlink:type="simple" xlink:actuate="onLoad" xlink:show="other" /><linearGradient xmlns:xlink="http://www.w3.org/1999/xlink" xlink:href="#linearGradientFAFBFCFFFFCC" id="linearGradientFAFBFCFFFFCC_614316549" x1="0" y1="360.0" x2="0" y2="420.0" gradientUnits="userSpaceOnUse" xlink:type="simple" xlink:actuate="onLoad" xlink:show="other" /><linearGradient xmlns:xlink="http://www.w3.org/1999/xlink" xlink:href="#linearGradientFAFBFCFFFFCC" id="linearGradientFAFBFCFFFFCC_895740084" x1="0" y1="370.0" x2="0" y2="430.0" gradientUnits="userSpaceOnUse" xlink:type="simple" xlink:actuate="onLoad" xlink:show="other" /></defs></svg>
